<?xml version="1.0" encoding="iso-8859-1"?>
<!-- Generator: Adobe Illustrator 19.0.0, SVG Export Plug-In . SVG Version: 6.00 Build 0)  -->
<svg version="1.1" id="Capa_1" xmlns="http://www.w3.org/2000/svg" xmlns:xlink="http://www.w3.org/1999/xlink" x="0px" y="0px"
	 viewBox="0 0 512 512" style="enable-background:new 0 0 512 512;" xml:space="preserve">
<path style="fill:#D20000;" d="M492.531,85.172l-186.37,134.604c-1.179-1.629-2.448-3.183-3.771-4.689
	c1.324,1.503,2.594,3.055,3.773,4.683l186.365-134.6c-10.003-8.747-23.087-14.059-37.418-14.059h-21.333h-0.003H284.444v0.001
	v-0.001h-56.889v0.001l22.116,123.251l-22.116-123.25v-0.001v-0.001H78.228h-0.006H56.889c-14.33,0-27.414,5.312-37.417,14.058
	L205.84,219.772c0.846-1.169,1.741-2.296,2.66-3.401c-0.92,1.107-1.815,2.236-2.662,3.405L19.469,85.172C7.543,95.6,0,110.915,0,128
	v92.444v0.209v0.209v70.693h0.001l194.685-27.036c0.001,0.008,0.002,0.017,0.003,0.026L0,291.778v0.196V384
	c0,17.085,7.543,32.4,19.469,42.828l186.37-134.604c1.182,1.633,2.455,3.192,3.78,4.7c-1.327-1.507-2.601-3.063-3.783-4.695
	L19.471,426.83c10.003,8.747,23.087,14.059,37.418,14.059h21.333h0.003h149.331v-0.001v0.001h56.889v-0.001l-22.116-123.251
	l22.116,123.25v0.001v0.001h149.327h0.006h21.333c14.331,0,27.414-5.312,37.417-14.058L306.16,292.228
	c-0.846,1.169-1.741,2.296-2.66,3.401c0.92-1.107,1.815-2.236,2.662-3.405l186.37,134.604C504.457,416.4,512,401.085,512,384
	v-92.026v-0.209l-194.689-27.141c0.005-0.034,0.008-0.069,0.013-0.103l194.675,27.035H512v-70.693v-0.196v-0.223V128
	C512,110.915,504.457,95.6,492.531,85.172z M194.716,247.585c-0.382,2.791-0.625,5.544-0.625,8.433c0-0.006,0-0.012,0-0.018
	c0-2.866,0.251-5.648,0.627-8.416L194.716,247.585z M284.444,71.113L284.444,71.113l-22.116,123.25L284.444,71.113z
	 M227.556,440.887L227.556,440.887l22.116-123.25L227.556,440.887z M317.909,256c0,0.006,0,0.012,0,0.018
	c0-2.89-0.214-5.875-0.597-8.384h0.003C317.696,250.144,317.909,253.108,317.909,256z"/>
<g>
	<path style="fill:#FFE600;" d="M194.69,264.519c-0.384-2.802-0.654-5.618-0.654-8.519c0-2.901,0.27-5.717,0.654-8.519
		L0.001,220.444H0v71.111h0.001L194.69,264.519z"/>
	<path style="fill:#FFE600;" d="M249.671,194.363c2.091-0.213,4.196-0.327,6.329-0.327c2.133,0,4.238,0.114,6.329,0.327
		l22.116-123.251v-0.001h-56.889v0.001L249.671,194.363z"/>
	<path style="fill:#FFE600;" d="M296.281,209.006c0.667,0.575,1.307,1.179,1.948,1.78c1.456,1.366,2.842,2.802,4.162,4.301
		c1.324,1.503,2.594,3.055,3.773,4.683L492.53,85.17c-10.004-8.747-23.088-14.059-37.419-14.059h-21.333h-0.003L296.28,209.004
		C296.281,209.005,296.281,209.005,296.281,209.006z"/>
	<path style="fill:#FFE600;" d="M262.329,317.637c-2.091,0.213-4.196,0.327-6.329,0.327c-2.133,0-4.238-0.114-6.329-0.327
		l-22.116,123.251v0.001h56.889v-0.001L262.329,317.637z"/>
	<path style="fill:#FFE600;" d="M214.37,210.24c0.45-0.411,0.888-0.834,1.351-1.232c0.001-0.001,0.002-0.002,0.003-0.003
		L78.228,71.111h-0.006H56.889c-14.33,0-27.414,5.312-37.417,14.058L205.84,219.772c0.846-1.169,1.741-2.296,2.66-3.401
		C210.313,214.193,212.276,212.15,214.37,210.24z"/>
	<path style="fill:#FFE600;" d="M215.718,302.994c-0.663-0.572-1.3-1.174-1.939-1.773c-1.455-1.365-2.841-2.799-4.16-4.298
		c-1.327-1.507-2.601-3.063-3.783-4.695L19.471,426.83c10.003,8.747,23.087,14.059,37.418,14.059h21.333h0.003l137.495-137.893
		C215.719,302.995,215.718,302.995,215.718,302.994z"/>
	<path style="fill:#FFE600;" d="M297.628,301.762c-0.449,0.41-0.887,0.833-1.349,1.23c-0.001,0.001-0.002,0.002-0.002,0.003
		l137.495,137.894h0.006h21.333c14.331,0,27.414-5.312,37.417-14.058L306.16,292.228c-0.846,1.169-1.741,2.296-2.66,3.401
		C301.687,297.808,299.723,299.85,297.628,301.762z"/>
	<path style="fill:#FFE600;" d="M317.31,247.481c0.384,2.802,0.654,5.618,0.654,8.519c0,2.901-0.27,5.717-0.654,8.519
		l194.689,27.036H512v-71.111h-0.001L317.31,247.481z"/>
	<path style="fill:#FFE600;" d="M256,208.258c-26.325,0-47.744,21.419-47.744,47.744s21.419,47.744,47.744,47.744
		s47.744-21.419,47.744-47.744S282.325,208.258,256,208.258z"/>
</g>
<g>
</g>
<g>
</g>
<g>
</g>
<g>
</g>
<g>
</g>
<g>
</g>
<g>
</g>
<g>
</g>
<g>
</g>
<g>
</g>
<g>
</g>
<g>
</g>
<g>
</g>
<g>
</g>
<g>
</g>
</svg>
