<?xml version="1.0" encoding="utf-8"?>
<!-- Generator: Adobe Illustrator 16.0.0, SVG Export Plug-In . SVG Version: 6.00 Build 0)  -->
<!DOCTYPE svg PUBLIC "-//W3C//DTD SVG 1.1//EN" "http://www.w3.org/Graphics/SVG/1.1/DTD/svg11.dtd">
<svg version="1.1" id="Layer_1" xmlns="http://www.w3.org/2000/svg" xmlns:xlink="http://www.w3.org/1999/xlink" x="0px" y="0px"
	 width="800px" height="800px" viewBox="0 0 800 800" enable-background="new 0 0 800 800" xml:space="preserve">
<g>
	<g>
		<path fill="#D20000" d="M558.42,68.012c3.398,7.072,5.105,13.21,5.105,18.416c0,7.447-11.389,21.956-34.166,43.528
			c-32.203,54.322-75.796,146.207-130.778,275.673c-58.908,139.144-99.75,249.443-122.528,330.919
			c1.307,8.188,1.962,14.509,1.962,18.973c0,12.276-8.247,23.813-24.742,34.599c-6.546,4.464-12.309,6.695-17.278,6.695
			c-6.548,0-15.188-8.561-25.92-25.669c-4.19-7.063-6.284-14.317-6.284-21.764c0-10.785,3.665-20.831,10.996-30.134
			c-1.571-124.251-13.223-247.953-34.952-371.098c-19.377-109.001-40.449-186.752-63.229-233.262
			c-7.853-16.366-18.328-24.554-31.417-24.554c-14.137,0-34.43,13.952-60.871,41.854c-2.884,2.982-6.284,4.463-10.211,4.463
			c-7.597,0-11.389-3.906-11.389-11.719c0-4.464,2.092-9.668,6.284-15.624c22.25-31.992,50.133-61.384,83.65-88.171
			c11.782-9.67,21.335-14.509,28.668-14.509c11.782,0,23.692,12.469,35.737,37.39c53.668,111.982,90.848,311.204,111.534,597.662
			c18.322-52.455,53.017-142.86,104.07-271.208c46.863-118.305,73.569-183.962,80.116-196.989
			c-4.978,1.117-10.21-5.946-15.709-21.204c-5.498-15.251-8.246-30.318-8.246-45.202c0-11.903,2.484-17.857,7.461-17.857
			c6.021,0.375,12.039,0.558,18.065,0.558c7.068-2.598,16.229-10.969,27.49-25.112c7.591-9.295,15.054-18.782,22.385-28.459
			c7.59-7.438,13.354-11.162,17.28-11.162C531.973,25.043,544.281,39.369,558.42,68.012z"/>
	</g>
	<g>
		<path fill="#FFE600" d="M797.464,68.012c0.521,3.349,0.785,6.331,0.785,8.929c0,10.795-4.713,18.049-14.139,21.764
			c-0.528,0.375-9.56,2.424-27.098,6.138c-46.341,9.304-93.997,16.934-142.952,22.879c-20.684,62.875-46.082,164.814-76.187,305.807
			c-27.755,128.725-48.176,236.244-61.266,322.547c-4.454,27.903-10.995,41.854-19.636,41.854c-5.497,0-16.63-4.098-33.382-12.276
			c-6.024-2.606-9.296-7.624-9.817-15.068c0.521,7.444,0.785-3.904,0.785-34.039c0-54.688,6.149-104.538,18.459-149.557
			c4.712-16.74,9.946-25.111,15.709-25.111c1.57,0,4.646,0.836,9.229,2.513c4.579,1.673,8.31,2.702,11.192,3.068
			c7.07-37.947,23.822-112.907,50.269-224.892c29.847-126.484,46.077-195.873,48.697-208.148
			c-40.32,4.463-80.643,13.393-120.957,26.786c-44.771,15.625-74.097,32.183-87.971,49.666
			c-15.709,20.09-23.564,39.996-23.564,59.71c0,21.206,8.64,54.321,25.92,99.332c1.83,4.839,2.75,9.303,2.75,13.394
			c0,9.303-3.013,13.95-9.033,13.95c-4.19,0-7.99-3.531-11.388-10.603c-20.686-42.036-34.167-74.777-40.451-98.215
			c-4.454-16.366-7.596-39.987-9.425-70.871c-2.884-45.384,23.428-78.868,78.938-100.447
			c72.26-27.902,145.171-46.501,218.744-55.804c8.377-24.18,14.53-36.273,18.459-36.273c6.021,0,16.23,9.304,30.633,27.903
			c6.805,0,27.883-3.715,63.228-11.161c6.282-1.483,12.697-7.997,19.243-19.532c5.756-10.786,19.501-16.924,41.235-18.416
			c11.782-0.741,19.895,5.581,24.35,18.974C789.609,24.677,792.486,39.744,797.464,68.012z"/>
	</g>
</g>
</svg>
